<svg width="64" height="55" version="1.1" viewBox="0 0 64 55" xmlns="http://www.w3.org/2000/svg" xmlns:xlink="http://www.w3.org/1999/xlink">
 <defs>
  <filter id="filter198" x="0" y="0" width="1" height="1" color-interpolation-filters="sRGB">
   <feTurbulence baseFrequency="0.01 0.01" numOctaves="2" result="turbulence" seed="1" type="fractalNoise"/>
   <feDisplacementMap in="SourceGraphic" in2="turbulence" scale="25" xChannelSelector="R" yChannelSelector="G"/>
  </filter>
  <radialGradient id="radialGradient34" cx="-294" cy="154" r="75" gradientTransform="matrix(.64 0 0 .64 620 -50.2)" gradientUnits="userSpaceOnUse">
   <stop stop-color="#82cdff" stop-opacity="0" offset=".8"/>
   <stop stop-color="#82cdff" stop-opacity=".6" offset="1"/>
  </radialGradient>
  <radialGradient id="radialGradient36" cx="-458" cy="155" r="19.1" gradientTransform="matrix(.536 0 0 .536 685 -53.5)" gradientUnits="userSpaceOnUse">
   <stop stop-color="#e1f2ff" stop-opacity=".941" offset="0"/>
   <stop stop-color="#e1f4ff" stop-opacity="0" offset="1"/>
  </radialGradient>
 </defs>
 <g fill="#eee" fill-rule="evenodd" stroke-width="0">
  <ellipse cx="-2164" cy="-226" rx="42.6" ry="45.4"/>
  <ellipse cx="-2027" cy="-2.28" rx="64.5" ry="69.4"/>
  <ellipse cx="-1226" cy="-108" rx="42.6" ry="45.4"/>
  <ellipse cx="-1257" cy="-367" rx="42.6" ry="45.4"/>
  <ellipse cx="-1826" cy="4.64" rx="52.5" ry="62.5"/>
  <ellipse cx="-1759" cy="-66.5" rx="42.6" ry="45.4"/>
  <ellipse cx="-1732" cy="-112" rx="42.6" ry="45.4"/>
  <ellipse cx="-1389" cy="-203" rx="73.1" ry="69.4"/>
  <ellipse cx="-1284" cy="-165" rx="72.1" ry="77.3"/>
  <ellipse cx="-1276" cy="-32.8" rx="80.3" ry="74.9"/>
  <ellipse cx="-1363" cy="16.7" rx="64.5" ry="74.5"/>
  <ellipse cx="-1460" cy="-21.1" rx="64.5" ry="69.4"/>
  <ellipse cx="-1298" cy="-278" rx="64.5" ry="69.4"/>
  <ellipse cx="-1337" cy="-375" rx="69" ry="78"/>
  <ellipse cx="-1434" cy="-384" rx="64.5" ry="69.4"/>
  <ellipse cx="-1486" cy="-347" rx="64.5" ry="69.4"/>
  <ellipse cx="-1697" cy="-339" rx="78.4" ry="69.4"/>
  <ellipse cx="-1732" cy="-200" rx="57.4" ry="69.4"/>
  <ellipse cx="-1694" cy="-10.2" rx="64.5" ry="69.4"/>
  <ellipse cx="-1687" cy="-99.8" rx="42.6" ry="45.4"/>
  <ellipse cx="-1658" cy="-157" rx="42.6" ry="45.4"/>
  <ellipse cx="-1658" cy="-232" rx="42.6" ry="45.4"/>
  <ellipse cx="-1730" cy="-288" rx="42.6" ry="45.4"/>
  <ellipse cx="-1687" cy="-288" rx="42.6" ry="45.4"/>
  <ellipse cx="-1668" cy="-402" rx="42.6" ry="45.4"/>
  <ellipse cx="-1730" cy="-378" rx="42.6" ry="45.4"/>
  <ellipse cx="-1858" cy="-242" rx="42.6" ry="45.4"/>
  <ellipse cx="-1867" cy="-288" rx="42.6" ry="45.4"/>
  <ellipse cx="-1789" cy="-270" rx="42.6" ry="45.4"/>
  <ellipse cx="-1804" cy="-325" rx="42.6" ry="45.4"/>
  <ellipse cx="-1752" cy="32.9" rx="45" ry="45.4"/>
  <ellipse cx="-1747" cy="-12.5" rx="42.6" ry="45.4"/>
  <ellipse cx="-1629" cy="32.9" rx="42.6" ry="45.4"/>
  <ellipse cx="-1600" cy="-12.5" rx="42.6" ry="45.4"/>
  <ellipse cx="-1427" cy="48.3" rx="42.6" ry="45.4"/>
  <ellipse cx="-1504" cy="-65.1" rx="42.6" ry="45.4"/>
  <ellipse cx="-1483" cy="-302" rx="42.6" ry="45.4"/>
  <ellipse cx="-1532" cy="-315" rx="42.6" ry="45.4"/>
 </g>
 <g fill-rule="evenodd">
  <path d="m237-158c-6.71.255-9.13 7.42-12.4 12.1-7.57 6.39 2.58 17.5 15.9 15.4 6.36-1.81 5.91-13.4 13.9-11 6.22.256 7.76 11.2.327 9.11-16.1-1.58-19.4 28.8 6.14 23.5 4.47 2.55 7.38 11.2.46 13.3-9.04 8.22-20.7-13.9-31.2-6.73-8.96 7.04 6.49 24.9 9.05 27.1 3.83 6.82 11.3 7.67 18.4 6.18 8.24 2.07 10.7-7.45 17.4-8.9 7.61 2.01 14.5-5.88 14.2-13.1-1.98-6.9 5.68-14.5-1.22-20.4-2.12-5.58-6.32-11.4-6.17-17.3 1.15-6.1-2.47-13.1 3.59-17.6 3.57-8.79-7.31-10.3-12.4-13.8-4.58-5.33-12.3-5.81-17.4-1.1-4.72-4.09-14.6-5.34-18.6 3.21zm-31.4-5.53c-5.13 1.29-9.12 6.91-14.8 4.66-4.18 2.19-1.77 13.4-8.51 8.51-6-.303-7.23 8.94-13.7 7.23-8.54 3.24-5.35 12.9-3.27 19.2 2.41 5.62 9.35 5.79 12.3.828 3.73-3.43 8.12-.451 6.83 4.3 1.93 5.77 5.33 13.6-1.01 17.9-1.66 3.46-.855 8.49-6.01 6.18-6.33.613-10.5 7.6-8.91 13.6.939 6.53 9.77 10.8 15.1 6.45 2.96 5.41 9.76 3.21 14.2 1.27 6.25-4.39 12.3 5.2 18.6 1.17 3.28-5.05 9.36-9.83 8.35-16.5-.957-9.22-10.7-3.48-15.4-5.14-4.46-7.08 6.08-12.2 4.82-18.8-3.34-5.78 2.48-11.6-1.28-16.9-4.48-5.71 1.66-10.5.803-16.4.0995-5.08-.505-18-8.19-17.5z" fill="#fff" stroke-width="0"/>
  <path d="m-408-483c-30.7.471-48.9 31.4-75.6 4.94-33.3-12.8-76 .598-89.8 35.1-48.4 2.84-57.9 59-86.4 87.9-19.2 33.7 16.4 68.3 46.8 78.1 47.3 23.5 95-2.66 111-50.5 24.3-37.1 93.3 3.51 65.3 41.3-31.8 5.84-76.1-.402-92.2 39.4-23.9 38.4-6.82 97.8 39.1 109 36.6 9.88 90.1-13.2 94.6 43.1 5.1 42.5-56.3 66-87.9 41.6-37.6-18.6-72.9-60.8-119-48.5-46.6 17.5-28.5 77.1-7.57 108 18 32 44 58.1 66.8 86.2 26.2 24.5 65.3 25.1 98.4 17.9 44.2 12.7 66.2-38.2 101-52.8 27.1 1.35 58.6-2.95 75.8-28.1 18.7-21.1 22-50 17.8-76.6 2.11-32.8 26.8-69.8 1.95-99.6-21.1-36.3-48-77.9-45-122-2.77-39.9-3.74-81.9 25.1-112 8.76-37-32.6-53.1-59.4-65.1-26.3-11.6-45.1-40.4-77.1-38.2zm-359 6.04c-31.8 12.1-62.1 39.1-96.4 32.2-15.5 23.5-16.1 75.2-55.6 49.8-32.7 11.5-48 53.9-87 49-34.4 18.6-28.5 64.2-18.2 95.4 1.12 39.4 53.6 65.8 79.5 31 19.6-33.1 58.8-2.85 49.1 27.5 21.5 40.4 15.6 85.3-14.2 117-3.01 47.9-58.6 11.3-78.3 46.9-28.6 40.2-2.36 112 48.6 117 24.4-2.13 36.7-22.2 53.4 3.43 40 20.2 75.7-27.2 115-11.5 33.4 21.8 78.5 23.5 94.9-19.2 26.8-25.5 50.3-88.9 4.46-106-27.9-4.28-87.7 20-76.7-30.5 6.48-32.4 47.6-57.2 32.7-92.6-8.39-39.7 16.2-82.6-14.2-118 .032-38.2 23.4-73.8 13.5-113-3.23-30.1-10.2-78.9-50-78.2z" fill="#fff" stroke-width="0"/>
  <rect x="146" y="192" width="800" height="816" rx="800" fill="#fbf9c0"/>
  <rect x="216" y="320" width="680" height="640" rx="800" fill="#ffe787"/>
 </g>
 <g fill="#fff" fill-rule="evenodd" stroke-linecap="round" stroke-linejoin="bevel" stroke-width="32">
  <path d="m-1480 875c-72.7-4.79-76.2-131-11.2-151 84-8.38 83.5 143 11.2 151zm-3.67-123c-54.9 10.8-15.8 140 25.3 74.2 8.06-24.3 8.62-70.9-25.3-74.2zm96.9 121c-24.9 5.48-35.6-3.22-29.5-28.7l.405-123c27-6.99 32.5 7.57 28.4 31.9zm13.4-27.8c26-17.8 99-81.7 45.3-95.6-6.36 17.9-61.8 38.5-39.5.354 27.3-53.5 126-15.6 79.3 41.9-10.9 27.7-70.3 62.7-12.4 53.4 23.8-12.9 31.2 24.3 16 29.1-29.5-.104-59.1-.207-88.6-.311zm117-84.6c-.712-76.2 126-17.9 59.4 27.6 72.5 23.7-.492 128-54.1 75.3-39.6-31.7 12.8-53.3 24.8-15.2 48.9 11.1 29.9-51.6-3.08-47.9-16.1-29.9 53.7-32.5 13.2-53.1-18.6 5.51-16.2 19.6-40.3 13.4zm132 51.5c-22.4 0 42.1 2.49 33.9-25.5.079-21.2.158-42.3.238-63.5 27-6.99 32.5 7.57 28.3 31.9 2.22 18-4 44.4 3.51 57.1 18.9-7.95 18.7 41.2-2.94 29.4 3.02 22.3 2.14 40.7-25.4 32.6-11.1-7.61 7.39-44.7-23.1-33.2-15.7-4.01-50.6 10.9-42.9-16.4v-88c27-6.99 32.5 7.57 28.2 31.9.016 14.6 14.6 43.7.048 43.7zm116-59.4c-15.5 51.9 64.4 3.03 70.3 56.2 31.1 69.2-98.6 94.9-95.6 18.5 31.5-10.3 52.3 53.1 71.2 1.25 1.93-53.5-75.8 11.3-70.6-33v-71.2h89.5c9.78 41.5-37.6 28.3-64.8 28.3zm164 75.9c-12.4-63.4-86.1 28.9-16.8 19.9 8.39-3.23 15.6-10.7 16.8-19.9zm-54.2-32.3c36-46.8 108 14.4 70 59.3-60 64.1-123-45.8-84.4-100 6.81-61.6 126-15.5 77.1 11.1-21.7-27.7-63.7-20.1-62.7 29.9zm181-71.7c4.64 36.4-20.1 66.9-30.9 100-8.8 15.2-13 42.3-24.6 50.3-27.6-4.4-23.6-20.9-11.3-40.4 11.7-27 23.3-53.9 35-80.9-19.2-.194-38.4-.389-57.7-.583-6.99-27 7.57-32.5 31.9-28.3 19.2-.089 38.3-.179 57.5-.268zm113 99.8c5.9 59-92.1 70.4-99.5 12-3.45-32.9 9.73-36 12.2-51 1.63-9.81-11.1-15.1-4.25-34.3 17.5-60.5 118-10.7 71.7 37.1 12.1 7.8 19.1 22.1 19.8 36.2zm-49.2-20.9c-74.5 21.9 42.1 80.1 16.4 8.17-4.76-5.42-9.72-6.48-16.4-8.17zm-1.08-56.3c-64.9 34.3 55.5 42.2 0 0zm110 87.8c-64.6.65-64.4-114 .583-112 19.7 14.2 63.1-22.7 54.7 25.2.091 41.7.124 83.5.436 125-24.9 5.48-35.6-3.22-29.4-28.7 4.57-28.3-9.4-5.35-26.3-9.28zm3.83-84.2c-67.8 13 18.9 99.2 22.9 25.7-.558-12.3-9.53-25.4-22.9-25.7z" stroke-opacity=".0667" aria-label="0 1 2 3 4 5 6 7 8 9 "/>
  <g transform="translate(-2684 -620)" stroke-opacity=".07" aria-label="ABCDEFGHIJKLMNOPQRSTUVWXYZ abcdefghijklmnopqrstuvwxyz">
   <path d="m960 1274c-138-4-33-243 53-121 23 43 6 120-53 121zm-4-125c-101 27 31 162 38 47 .9-22-12-49-38-47zm80-30c123-37 123 119 29 120 4 62-50 17-29-26zm30 78c116-6-29-115 0 0zm154 77c-151-10-11-255 58-108 3 68 17 131-58 108zm31-59c28-113-134-41-50 26 51 31-.9-74 50-26zm45-95c54-18 79 8 88 36 12 40-28 43-18 66 53 18 20 77-13 27-50-64-3 38-53 22-10-29-1-77-4-113zm30 62c90 11-10-84-.06-6zm157 18c82 100-126 60-49 33 105 30-87-79-.9-110 80-12 72 58 7 29 2 22 31 31 43 48zm113-79c36 19-49 27-28 85 15 33-16 98-29 45-10-31 15-90-19-101-39-33 38-30 66-28 4-.01 7-.02 11-.03zm62 149c-101-6-23-255-23-87-.7 111 72 23 47-42 39-88 46 146-24 128zm128-45c15-31 20-85 42-102 37 17-9 153-55 147-20-31-72-196-15-126 9 27 19 54 28 81zm208-105c53 3 17 162-34 149-19-36-19-94-32-15-22 32-56-33-58-70-3-45-3-61 7-61 4 .1 6 4 9 7 14 20 11 67 22 93 16-28-2-98 44-89 10 15 16 112 24 70zm79 77c-15-23-68-76-17-73 23 48 45 54 68 3 50-12 3 49-15 71 17 23 65 76 16 74-22-49-44-54-67-2-58 5 2-48 15-71zm142-25c3-38 72-76 45-21-24 34-36 70-30 111-36 36-28-35-32-62-13-25-62-87-11-76 9 16 19 32 28 48zm128-26c-36 17-98-24-37-26 30 .09 95-11 62 37-7 26-75 84-36 84 56-17 54 46-2 27-51 15-66-24-30-58 14-21 27-42 41-63z" fill="#fff" fill-rule="evenodd" stroke-linecap="round" stroke-linejoin="bevel" stroke-opacity=".07" stroke-width="32"/>
  </g>
  <g transform="translate(-2773 -294)" stroke-opacity=".07" aria-label="ABCDEFGHIJKLMNOPQRSTUVWXYZ abcdefghijklmnopqrstuvwxyz">
   <path d="m1e3 697c-55-26-47 50.7-87 24.7 15-41 48-217 89-107 30 30 44 188-2 82zm-39-29c55 20 4-88 3-10zm192 15c-22 74-132 56-99-25-35-80 71-120 96-36-22 38-6 26 4 62zm-73 19c111 1-23-89 0 0zm0-64c110 2-23-85 0 0zm190 69c-121 111-141-198-7-115 4 39-103-4-69 82 18 63 51-5 76 33zm116-55c.5 89-138 103-102 5-29-84 56-114 98-31 3 8 3 17 4 26zm-26 6c-33-104-65-21-50 40 11 17 55-19 50-40zm67-18c51-21 68 44 9 29-31 28 4 36 39 30 12-2 10 24 10 17-27 46-118 13-87-57 5-35-19-99 38-81 50-20 74 42 12 29-33-7-19 12-22 34zm101 .6c51-21 68 44 9 29-14 8-7 97-38 46 .1-46 .3-92 .4-138 31 8 100-22 88 29-33 5-72-19-60 34zm174 2c29 128-152 91-102-20 15-99 154 6 53-17-85 23 23 153 16 64-61-9-.4-40 33-27zm121 84c-62 15 4-97-80-60 23 50-40 94-29 21 9-34-21-108 19-111 21 17-8 85 54 61 3-17 16-102 35-42l.5 65.5zm12 .8c-7-42 47-22 28-76 29-51-61-48-15-75 30-7 106 1 60 29-45-24-13 84-9 94 60 30-35 29-64 29zm176-150c28 58-31 204-72 129 93 7-4-141 72-129zm45 55c21-19 68-84 71-31-28 26-72 52-19 80 53 29-4 66-25 16-49-67 .8 47-51 30-10-37-.9-94-4-138 29-45 32 17 29 44zm116 67c45-22 79 37 19 29-56 17-52-27-49-69 8-28-23-96 28-82zm111-123c18 63 43 133 63 32 52-117 62 80 57 116-50 23-27-53-38-82-.6 33-63 138-76 28-29-85-1 64-34 58-27 3-17-175 29-151zm255 147c-59 26-102-159-94-42 21 51-44 68-29 9 5-34-9-84 7-108 40-9 49 52 76 75 22 32 19-37 14-68-2-9 9-14 4-12 40 11 23 105 23 146z" fill="#fff" fill-rule="evenodd" stroke-linecap="round" stroke-linejoin="bevel" stroke-opacity=".07" stroke-width="32"/>
  </g>
 </g>
 <g fill-rule="evenodd">
  <text x="-1967.748" y="1176.021" fill="#ffffff" filter="url(#filter198)" font-family="Arial" font-size="192px" font-weight="900" stroke-linecap="round" stroke-linejoin="bevel" stroke-opacity=".0667" stroke-width="16" xml:space="preserve"><tspan x="-1967.748" y="1176.021" font-size="192px">ROUGHEN FILTER</tspan></text>
  <rect x="1" y="-159" width="94" height="94" rx="12" fill="#fff" stroke="#000" stroke-linecap="round" stroke-linejoin="bevel" stroke-width="2"/>
  <path d="m48-97c-18.6 0-34.3 8.24-46 20.8.69 5.98 4.84 10.2 11 10.2h70c6.17 0 10.3-4.22 11-10.2-11.7-12.6-27.4-20.8-46-20.8z" fill="#f7941d"/>
  <path d="m26-158a24 32 0 0020.8 16.1 24 32 0 0020.8-16.1z" fill="#af1e25"/>
  <rect x="26" y="-122" width="8" height="8" rx="4"/>
  <rect x="62" y="-122" width="8" height="8" rx="4"/>
 </g>
 <rect x="384" width="96" height="96" rx="48" fill="url(#radialGradient34)" fill-rule="evenodd" stroke-linecap="round" stroke-linejoin="bevel" stroke-width="1.28"/>
 <rect x="429" y="19.2" width="20.5" height="20.5" rx="40.2" fill="url(#radialGradient36)" fill-rule="evenodd" stroke-linecap="round" stroke-linejoin="bevel" stroke-width="1.05"/>
 <g fill-rule="evenodd">
  <rect x="8" width="96" height="96" rx="48" fill="#f7ec1d"/>
  <rect x="24" y="16" width="64" height="64" rx="32" fill="#f2d609"/>
  <path transform="matrix(.265 0 0 .276 220 48.2)" d="m-61.5 173-106-57.9-118 51.5 22.4-119-85.5-96.3 120-15.3 65.2-111 51.5 109 126 27.7-87.8 82.7z" fill="#f7ec1d"/>
  <path d="m304 0-48 12 8 58 40 26 40-26 8-58z" fill="#fb86f6"/>
  <path d="m304 8-40 10 6 48 34 22 34-22 6-48z" fill="#f712ed"/>
  <path d="m538 .000381c-14.6.0374-30.1 7.72-24.7 42.7 4.79 30.8 46.9 53.3 46.9 53.3s42.1-22.6 46.9-53.3c9.67-62.1-46.9-38.1-46.9-38.1s-10.8-4.6-22.2-4.57z" fill="#f83838"/>
 </g>
 <g fill="#fef078" fill-rule="evenodd" stroke-linecap="round" stroke-linejoin="bevel" stroke-width="4">
  <path d="m56 100h-22s-34 8-34 48c.0103 40 33.9 48 33.9 48h22.1"/>
  <path d="m52 200h-22s-30 8-30 48c.0103 40 29.9 48 29.9 48h22.1"/>
  <path d="m49 300h-25s-22 8-22 48c.0103 40 21.9 48 21.9 48h25.1"/>
  <path d="m49.5 400h-27.5s-10 8-10 48c.0103 40 9.89 48 9.89 48h27.6"/>
  <path d="m23 500s-4.01 8-4 48c.0103 40 4 48 4 48h28s3.99-8 4-48-4-48-4-48z"/>
 </g>
 <g fill="#f7ec1d" fill-rule="evenodd">
  <rect x="15" y="100" width="81" height="96" rx="40.5" ry="48"/>
  <rect x="19" y="200" width="66" height="96" rx="33" ry="48"/>
  <rect x="24" y="300" width="49.4" height="96" rx="24.7" ry="48"/>
  <rect x="36" y="400" width="27" height="96" rx="13.5" ry="48"/>
 </g>
 <g fill="#f2d609" fill-rule="evenodd">
  <rect x="29" y="116" width="54" height="64" rx="27" ry="32"/>
  <rect x="30" y="216" width="44" height="64" rx="22" ry="32"/>
  <rect x="33" y="316" width="32" height="64" rx="16" ry="32"/>
  <rect x="41" y="416" width="18" height="64" rx="9" ry="32"/>
 </g>
</svg>
