<svg id="svg16" width="3200" height="3200" version="1.1" viewBox="0 0 4e3 2500" xmlns="http://www.w3.org/2000/svg">
 <defs id="defs7">
  <filter id="filter198" x="0" y="0" width="1.02" height="1.08" color-interpolation-filters="sRGB">
   <feTurbulence id="feTurbulence1" baseFrequency="0.01 0.01" numOctaves="2" result="turbulence" seed="1" type="fractalNoise"/>
   <feDisplacementMap id="feDisplacementMap1" in="SourceGraphic" in2="turbulence" result="fbSourceGraphic" scale="25" xChannelSelector="R" yChannelSelector="G"/>
   <feColorMatrix id="feColorMatrix1" in="fbSourceGraphic" result="fbSourceGraphicAlpha" values="0 0 0 -1 0 0 0 0 -1 0 0 0 0 -1 0 0 0 0 1 0"/>
   <feFlood id="feFlood1" flood-color="rgb(85,119,170)" in="fbSourceGraphic" result="flood"/>
   <feGaussianBlur id="feGaussianBlur1" in="fbSourceGraphic" result="blur" stdDeviation="0.000000"/>
   <feOffset id="feOffset1" dx="35.000000" dy="35.000000" in="blur" result="offset"/>
   <feComposite id="feComposite1" in="flood" in2="offset" operator="in" result="comp1"/>
   <feComposite id="feComposite2" in="fbSourceGraphic" in2="comp1" result="comp2"/>
  </filter>
  <filter id="filter198-7" x="0" y="0" width="1.01" height="1.08" color-interpolation-filters="sRGB">
   <feTurbulence id="feTurbulence2" baseFrequency="0.01 0.01" numOctaves="2" result="turbulence" seed="1" type="fractalNoise"/>
   <feDisplacementMap id="feDisplacementMap2" in="SourceGraphic" in2="turbulence" result="fbSourceGraphic" scale="25" xChannelSelector="R" yChannelSelector="G"/>
   <feColorMatrix id="feColorMatrix2" in="fbSourceGraphic" result="fbSourceGraphicAlpha" values="0 0 0 -1 0 0 0 0 -1 0 0 0 0 -1 0 0 0 0 1 0"/>
   <feFlood id="feFlood2" flood-color="rgb(85,119,170)" in="fbSourceGraphic" result="flood"/>
   <feGaussianBlur id="feGaussianBlur2" in="fbSourceGraphic" result="blur" stdDeviation="0.000000"/>
   <feOffset id="feOffset2" dx="35.000000" dy="35.000000" in="blur" result="offset"/>
   <feComposite id="feComposite3" in="flood" in2="offset" operator="in" result="comp1"/>
   <feComposite id="feComposite4" in="fbSourceGraphic" in2="comp1" result="comp2"/>
  </filter>
  <filter id="filter198-5" x="0" y="0" width="1.01" height="1.06" color-interpolation-filters="sRGB">
   <feTurbulence id="feTurbulence4" baseFrequency="0.01 0.01" numOctaves="2" result="turbulence" seed="1" type="fractalNoise"/>
   <feDisplacementMap id="feDisplacementMap4" in="SourceGraphic" in2="turbulence" result="fbSourceGraphic" scale="25" xChannelSelector="R" yChannelSelector="G"/>
   <feColorMatrix id="feColorMatrix4" in="fbSourceGraphic" result="fbSourceGraphicAlpha" values="0 0 0 -1 0 0 0 0 -1 0 0 0 0 -1 0 0 0 0 1 0"/>
   <feFlood id="feFlood4" flood-color="rgb(85,119,170)" in="fbSourceGraphic" result="flood"/>
   <feGaussianBlur id="feGaussianBlur4" in="fbSourceGraphic" result="blur" stdDeviation="0.000000"/>
   <feOffset id="feOffset4" dx="35.000000" dy="35.000000" in="blur" result="offset"/>
   <feComposite id="feComposite5" in="flood" in2="offset" operator="in" result="comp1"/>
   <feComposite id="feComposite6" in="fbSourceGraphic" in2="comp1" result="comp2"/>
  </filter>
  <linearGradient id="linearGradient38" x1="-4736" x2="-736" y1="-6494" y2="-6494" gradientTransform="matrix(1 0 0 1.6 4736 11642)" gradientUnits="userSpaceOnUse">
   <stop id="stop6" stop-color="#1aabe7" offset="0"/>
   <stop id="stop7" stop-color="#3dc6e3" offset="1"/>
  </linearGradient>
 </defs>
 <path id="path7" d="m212 2160-25.7-14.6-28.6 13 5.43-30-20.7-24.3 29.1-3.86 15.8-28 12.5 27.5 30.5 6.99-21.3 20.9z" fill="#f7ec1d" fill-rule="evenodd" stroke-width=".247"/>
 <text id="text7" x="-1908.8602" y="-3617.3125" fill="#78fed0" fill-rule="evenodd" font-size="192px" stroke-linecap="round" stroke-linejoin="bevel" stroke-width="6" xml:space="preserve"><tspan id="tspan7" x="-1908.8602" y="-3617.3125"/></text>
 <rect id="rect7" y="-750" width="4e3" height="4e3" fill="url(#linearGradient38)" fill-rule="evenodd" stroke-linecap="round" stroke-linejoin="bevel" stroke-width="7.59"/>
 <g id="g9" transform="matrix(.964 0 0 .964 -71.7 -353)" fill-rule="evenodd">
  <rect id="rect8" x="1874" y="-924" width="3e3" height="3200" rx="3e3" fill="#fbf9c0"/>
  <rect id="rect9" x="2137" y="-422" width="2550" height="2510" rx="3e3" fill="#ffe787"/>
 </g>
 <g id="g12" transform="matrix(10.1 11 -11.1 10.2 -3602 22347)" fill-rule="evenodd">
  <rect id="rect10" x="-846" y="-1202" width="94" height="94" rx="12" fill="#fff" stroke="#000" stroke-linecap="round" stroke-linejoin="bevel" stroke-width="2"/>
  <path id="path10" d="m-799-1140c-18.6 0-34.3 8.24-46 20.8.69 5.98 4.84 10.2 11 10.2h70c6.17 0 10.3-4.22 11-10.2-11.7-12.6-27.4-20.8-46-20.8z" fill="#f7941d"/>
  <path id="path11" d="m-821-1201a24 32 0 0020.8 16.1 24 32 0 0020.8-16.1z" fill="#af1e25"/>
  <rect id="rect11" x="-821" y="-1165" width="8" height="8" rx="4"/>
  <rect id="rect12" x="-785" y="-1165" width="8" height="8" rx="4"/>
 </g>
 <text id="text13" transform="matrix(.538 0 0 .538 2958 5116)" x="-2484.4158" y="-3940.613" fill="#ffffff" fill-rule="evenodd" filter="url(#filter198-5)" font-family="Arial" font-size="774px" font-weight="900" stroke-linecap="round" stroke-linejoin="bevel" stroke-opacity=".0667" stroke-width="16" xml:space="preserve"><tspan id="tspan13" x="-2484.4158" y="-3940.613" font-size="774px">Episode 1 </tspan></text>
 <g id="g16" transform="matrix(.998 0 0 .998 -66.9 -110)" fill="#fff" fill-rule="evenodd" font-family="Arial" font-size="640px" font-weight="900" stroke-linecap="round" stroke-linejoin="bevel" stroke-opacity=".0667" stroke-width="16">
  <text id="text12" transform="matrix(.856 0 0 .856 9977 6038)" x="-9922.8916" y="-6202.0332" filter="url(#filter198)" xml:space="preserve"><tspan id="tspan12" x="-9922.8916" y="-6202.0332">Chicken</tspan></text>
  <text id="text14" transform="matrix(.464 0 0 .464 4968 2526)" x="-9775.1875" y="-4533.875" filter="url(#filter198)" xml:space="preserve"><tspan id="tspan14" x="-9775.1875" y="-4533.875">Butter</tspan></text>
  <text id="text15" transform="matrix(.856 0 0 .856 8783 5967)" x="-10063.292" y="-6859.9707" filter="url(#filter198-7)" xml:space="preserve"><tspan id="tspan15" x="-10063.292" y="-6859.9707">BadLuck</tspan></text>
 </g>
</svg>
